<?xml version="1.0" encoding="UTF-8" standalone="no"?>
<!-- Created with Inkscape (http://www.inkscape.org/) -->

<svg
   xmlns:dc="http://purl.org/dc/elements/1.1/"
   xmlns:cc="http://creativecommons.org/ns#"
   xmlns:rdf="http://www.w3.org/1999/02/22-rdf-syntax-ns#"
   xmlns:svg="http://www.w3.org/2000/svg"
   xmlns="http://www.w3.org/2000/svg"
   xmlns:xlink="http://www.w3.org/1999/xlink"
   xmlns:sodipodi="http://sodipodi.sourceforge.net/DTD/sodipodi-0.dtd"
   xmlns:inkscape="http://www.inkscape.org/namespaces/inkscape"
   width="128mm"
   height="128mm"
   viewBox="0 0 128 128"
   version="1.1"
   id="svg8"
   inkscape:version="0.92.3 (2405546, 2018-03-11)"
   sodipodi:docname="xsane-pdfreduce.svg">
  <defs
     id="defs2">
    <linearGradient
       id="linearGradient2467"
       x1="302.85999"
       x2="302.85999"
       y1="366.64999"
       y2="609.51001"
       gradientTransform="matrix(0.067325,0,0,0.0147,-0.34114,37.04)"
       gradientUnits="userSpaceOnUse">
      <stop
         id="stop5050"
         style="stop-opacity:0"
         offset="0" />
      <stop
         id="stop5056"
         offset=".5" />
      <stop
         id="stop5052"
         style="stop-opacity:0"
         offset="1" />
    </linearGradient>
    <radialGradient
       id="radialGradient2464"
       cx="605.71002"
       cy="486.64999"
       r="117.14"
       gradientTransform="matrix(-0.02304,0,0,0.0147,21.623,37.04)"
       gradientUnits="userSpaceOnUse"
       xlink:href="#linearGradient5060" />
    <linearGradient
       id="linearGradient5060">
      <stop
         id="stop5062"
         offset="0" />
      <stop
         id="stop5064"
         style="stop-opacity:0"
         offset="1" />
    </linearGradient>
    <radialGradient
       id="radialGradient2461"
       cx="605.71002"
       cy="486.64999"
       r="117.14"
       gradientTransform="matrix(0.02304,0,0,0.0147,26.361,37.04)"
       gradientUnits="userSpaceOnUse"
       xlink:href="#linearGradient5060" />
    <radialGradient
       id="radialGradient2456"
       cx="14.766"
       cy="10.898"
       r="18"
       gradientTransform="matrix(-2.2703e-8,2.1357,-3.5601,-3.7845e-8,54.621,-24.438)"
       gradientUnits="userSpaceOnUse">
      <stop
         id="stop3244"
         style="stop-color:#f89b7e"
         offset="0" />
      <stop
         id="stop3246"
         style="stop-color:#e35d4f"
         offset=".26238" />
      <stop
         id="stop3248"
         style="stop-color:#c6262e"
         offset=".66094" />
      <stop
         id="stop3250"
         style="stop-color:#690b2c"
         offset="1" />
    </radialGradient>
    <linearGradient
       id="linearGradient2458"
       x1="-51.785999"
       x2="-51.785999"
       y1="53.624001"
       y2="2.9061999"
       gradientTransform="matrix(0.8075,0,0,0.89483,59.41,-2.9806)"
       gradientUnits="userSpaceOnUse">
      <stop
         id="stop2492"
         style="stop-color:#791235"
         offset="0" />
      <stop
         id="stop2494"
         style="stop-color:#dd3b27"
         offset="1" />
    </linearGradient>
    <radialGradient
       id="radialGradient2453"
       cx="102"
       cy="112.3"
       r="139.56"
       gradientTransform="matrix(0.3617,0,0,-0.39078,0.85106,47.517)"
       gradientUnits="userSpaceOnUse">
      <stop
         id="stop41"
         offset="0" />
      <stop
         id="stop47"
         offset=".18851" />
      <stop
         id="stop49"
         style="stop-opacity:0"
         offset=".25718" />
      <stop
         id="stop51"
         style="stop-opacity:0"
         offset="1" />
    </radialGradient>
    <linearGradient
       id="linearGradient2450"
       x1="24"
       x2="24"
       y1="2"
       y2="46.016998"
       gradientTransform="matrix(1,0,0,0.97778,0,-0.96667)"
       gradientUnits="userSpaceOnUse">
      <stop
         id="stop3213"
         style="stop-color:#fff"
         offset="0" />
      <stop
         id="stop3215"
         style="stop-color:#fff;stop-opacity:0"
         offset="1" />
    </linearGradient>
    <linearGradient
       id="linearGradient2447"
       x1="23.969999"
       x2="23.969999"
       y1="3.9809999"
       y2="44.023998"
       gradientTransform="matrix(0.89474,0,0,1.1316,2.5263,-4.6579)"
       gradientUnits="userSpaceOnUse">
      <stop
         id="stop4248"
         style="stop-color:#fff"
         offset="0" />
      <stop
         id="stop4250"
         style="stop-color:#dcdcdc"
         offset="1" />
    </linearGradient>
    <filter
       id="filter3212"
       x="-0.14846"
       y="-0.16434"
       width="1.2969"
       height="1.3286999">
      <feGaussianBlur
         id="feGaussianBlur3214"
         stdDeviation="0.77391625" />
    </filter>
    <linearGradient
       id="linearGradient2441"
       x1="32.891998"
       x2="36.358002"
       y1="8.059"
       y2="5.4565001"
       gradientTransform="matrix(0.9977,0,0,1.0407,0.1638,-1.1058)"
       gradientUnits="userSpaceOnUse">
      <stop
         id="stop8591"
         style="stop-color:#fefefe"
         offset="0" />
      <stop
         id="stop8593"
         style="stop-color:#cbcbcb"
         offset="1" />
    </linearGradient>
    <linearGradient
       id="linearGradient2438"
       x1="35.516998"
       x2="34.103001"
       y1="4.8576999"
       y2="6.5436001"
       gradientUnits="userSpaceOnUse">
      <stop
         id="stop4269"
         style="stop-color:#c4c4c4"
         offset="0" />
      <stop
         id="stop4271"
         style="stop-color:#c4c4c4;stop-opacity:0"
         offset="1" />
    </linearGradient>
  </defs>
  <sodipodi:namedview
     id="base"
     pagecolor="#ffffff"
     bordercolor="#666666"
     borderopacity="1.0"
     inkscape:pageopacity="0.0"
     inkscape:pageshadow="2"
     inkscape:zoom="1"
     inkscape:cx="-75.714286"
     inkscape:cy="360.60057"
     inkscape:document-units="mm"
     inkscape:current-layer="layer2"
     showgrid="true"
     inkscape:window-width="1916"
     inkscape:window-height="1036"
     inkscape:window-x="0"
     inkscape:window-y="20"
     inkscape:window-maximized="1">
    <inkscape:grid
       type="xygrid"
       id="grid919" />
  </sodipodi:namedview>
  <metadata
     id="metadata5">
    <rdf:RDF>
      <cc:Work
         rdf:about="">
        <dc:format>image/svg+xml</dc:format>
        <dc:type
           rdf:resource="http://purl.org/dc/dcmitype/StillImage" />
        <dc:title></dc:title>
      </cc:Work>
    </rdf:RDF>
  </metadata>
  <g
     inkscape:label="Layer 1"
     inkscape:groupmode="layer"
     id="layer1"
     transform="translate(0,-169)">
    <g
       transform="matrix(1.2792562,0,0,1.2792562,32.632129,201.04728)"
       id="layer1-3">
      <rect
         id="rect2879"
         x="7.7378001"
         y="42.43"
         width="32.507999"
         height="3.5701001"
         style="opacity:0.3;fill:url(#linearGradient2467)" />
      <path
         inkscape:connector-curvature="0"
         id="path2881"
         d="m 7.7378,42.43 v 3.5699 c -1.1865,0.0067 -2.8684,-0.79982 -2.8684,-1.7852 0,-0.98533 1.324,-1.7847 2.8684,-1.7847 z"
         style="opacity:0.3;fill:url(#radialGradient2464)" />
      <path
         inkscape:connector-curvature="0"
         id="path2883"
         d="m 40.246,42.43 v 3.5699 c 1.1865,0.0067 2.8684,-0.79982 2.8684,-1.7852 0,-0.98533 -1.324,-1.7847 -2.8684,-1.7847 z"
         style="opacity:0.3;fill:url(#radialGradient2461)" />
      <path
         inkscape:connector-curvature="0"
         id="path4160"
         d="m 6.5,0.4972 h 24.061 c 0.52523,1.9602 6.1331,6.8516 10.939,9.6264 v 34.379 H 6.5 V 0.4966 Z"
         style="fill:url(#radialGradient2456);stroke:url(#linearGradient2458);stroke-width:0.99992001;stroke-linejoin:round" />
      <path
         inkscape:connector-curvature="0"
         id="path4191"
         d="M 7.3617,44 C 7.1624,44 7,43.82454 7,43.60922 V 1.40522 C 7,1.18951 7.1624,1.01444 7.3617,1.01444 c 7.4831,0.10801 15.776,-0.16158 23.25,0.026895 l 10.283,8.866 0.10598,33.702 c 0,0.21532 -0.16204,0.39078 -0.3617,0.39078 h -33.277 z"
         style="opacity:0.2;fill:url(#radialGradient2453)" />
      <path
         inkscape:connector-curvature="0"
         id="path2435"
         d="M 40.5,10.259 V 43.522 H 7.5 V 1.477 h 22.866"
         style="opacity:0.4;fill:none;stroke:url(#linearGradient2450);stroke-width:0.99992001;stroke-linejoin:round" />
      <path
         inkscape:connector-curvature="0"
         id="path6711"
         d="M 27.406,1 C 15.817,13.595 9.202,15.366 7,15.562 v 4.5312 c 1.6621,-0.29395 5.8318,-1.3138 10.281,-4.8438 5.7054,-4.5263 12.531,-13.125 12.531,-13.125 -1.8707,4.6478 -2.4014,20.681 -2.4375,41.875 h 13.625 v -2.125 C 38.7826,36.0831 37.3371,27.7274 36.2495,20.2494 35.6068,14.0719 35.83328,9.6254 36.3454,5.9064 34.4241,4.275 30.7244,1.7195 29.5167,0.9998 h -2.111 z M 7,22.938 v 5.0312 c 4.8112,-1e-6 12.203,7.3024 15.781,16.031 h 3 C 24.0998,36.0648 10.67,22.9382 7,22.9382 Z"
         style="fill:url(#linearGradient2447);fill-rule:evenodd" />
      <path
         inkscape:connector-curvature="0"
         id="path6713"
         d="M 34.495,5 C 28.651,9.0398 16.712,16.014 7,14.9028 v 8.983 c 2e-7,-1e-6 26.154,4.7101 34,-5.2375 V 10.7532 C 39.6452,8.9192 36.6419,6.6269 34.4953,5.0001 Z m 6.5047,22.893 C 37.8791,31.3455 34.0488,38.166 31.3624,44 l -3.3627,-0.02851 c 3.1379,-8.2021 8.212,-16.259 13,-21.971 v 5.8931 z"
         style="opacity:0.15;fill-rule:evenodd" />
      <path
         inkscape:connector-curvature="0"
         id="path12038"
         d="m 28.617,0.92126 c 4.2825,0 2.1532,8.4832 2.1532,8.4832 0,0 10.358,-1.8023 10.358,2.8187 0,-2.6097 -11.302,-10.729 -12.511,-11.302 z"
         style="opacity:0.4;fill-rule:evenodd;filter:url(#filter3212)" />
      <path
         inkscape:connector-curvature="0"
         id="path4474"
         d="m 28.617,0.92126 c 3.1865,0 2.3358,7.6619 2.3358,7.6619 0,0 10.175,-0.98105 10.175,3.64 0,-1.1259 0.08591,-1.9322 -0.13378,-2.2836 -1.5783,-2.5242 -8.1132,-8.1884 -10.575,-8.9308 C 30.2348,0.953205 29.54398,0.921225 28.61682,0.921225 Z"
         style="fill:url(#linearGradient2441);fill-rule:evenodd" />
      <path
         inkscape:connector-curvature="0"
         id="path4238"
         d="m 30.561,0.5 c 1.4069,0.47465 8.9655,5.8794 10.939,9.6236 v 12.285 C 1.054,38.1376 6.264,0.4996 30.561,0.4996 Z"
         style="fill:none;stroke:url(#linearGradient2438);stroke-width:0.99992001;stroke-linejoin:round" />
    </g>
  </g>
  <g
     inkscape:groupmode="layer"
     id="layer2"
     inkscape:label="Layer 2">
    <path
       style="fill:none;fill-rule:evenodd;stroke:#000000;stroke-width:0.26458332px;stroke-linecap:butt;stroke-linejoin:miter;stroke-opacity:1"
       d="M 2.6458333,8.9375034 7.9374999,3.6458368 26.458333,19.520837 31.75,14.22917 v 15.875 l -15.875,0 5.291666,-5.291667 z"
       id="path4624"
       inkscape:connector-curvature="0"
       sodipodi:nodetypes="cccccccc" />
    <path
       style="opacity:0.77777782;fill:#00ff00;fill-opacity:1;stroke:#337c2b;stroke-width:2.09007883;stroke-linejoin:miter;stroke-miterlimit:4;stroke-dasharray:2.09007874, 2.09007874;stroke-dashoffset:0;stroke-opacity:1"
       d="M 72.139273,103.02601 81.453331,93.673062 46.457833,63.668316 11.462336,33.663569 20.758493,24.406065 30.05465,15.148562 64.575886,44.763759 c 18.98668,16.288359 34.892715,29.615198 35.346743,29.615198 0.454031,0 4.996461,-4.153612 10.094291,-9.23025 l 9.26879,-9.230249 V 84.148707 112.37896 H 91.055464 62.825215 Z"
       id="path4626"
       inkscape:connector-curvature="0"
       transform="scale(0.26458333)" />
    <path
       style="opacity:0.77777782;fill:#00ff00;fill-opacity:1;stroke:#337c2b;stroke-width:0.55300003;stroke-linejoin:miter;stroke-miterlimit:4;stroke-dasharray:0.553, 0.553;stroke-dashoffset:0;stroke-opacity:1"
       d="m 102.8778,27.629535 -2.46434,-2.474634 9.25922,-7.938755 9.25923,-7.9387558 -2.45961,-2.449382 -2.45961,-2.44938 -9.13374,7.8356868 c -5.02356,4.309628 -9.23203,7.835688 -9.35216,7.835688 -0.12013,0 -1.32198,-1.098977 -2.67078,-2.442171 l -2.45237,-2.44217 v 7.469254 7.469254 h 7.46925 7.46926 z"
       id="path4626-6"
       inkscape:connector-curvature="0" />
    <path
       style="opacity:0.77777782;fill:#00ff00;fill-opacity:1;stroke:#337c2b;stroke-width:0.55300003;stroke-linejoin:miter;stroke-miterlimit:4;stroke-dasharray:0.553, 0.553;stroke-dashoffset:0;stroke-opacity:1"
       d="m 21.921671,94.065968 2.464344,2.47464 -9.259226,7.938752 -9.2592247,7.93876 2.459608,2.44938 2.4596077,2.44938 9.133744,-7.83569 c 5.02356,-4.30962 9.232031,-7.83568 9.35216,-7.83568 0.120129,0 1.32198,1.09897 2.670781,2.44217 l 2.452368,2.44217 v -7.469262 -7.46925 h -7.469254 -7.469253 z"
       id="path4626-7"
       inkscape:connector-curvature="0" />
    <path
       style="opacity:0.77777782;fill:#00ff00;fill-opacity:1;stroke:#337c2b;stroke-width:0.55300003;stroke-linejoin:miter;stroke-miterlimit:4;stroke-dasharray:0.55300001, 0.55300001;stroke-dashoffset:0;stroke-opacity:1"
       d="m 103.00601,93.775364 -2.46434,2.47464 9.25922,7.938756 9.25923,7.93876 -2.45961,2.44938 -2.45961,2.44938 -9.13374,-7.83569 c -5.023563,-4.30962 -9.232033,-7.83568 -9.352163,-7.83568 -0.12013,0 -1.32198,1.09897 -2.67078,2.44217 l -2.45237,2.44217 v -7.469263 -7.469253 h 7.46925 7.469263 z"
       id="path4626-7-5"
       inkscape:connector-curvature="0" />
  </g>
</svg>
